<?xml version="1.0" encoding="utf-8"?>
<!-- Generator: Adobe Illustrator 16.0.0, SVG Export Plug-In . SVG Version: 6.00 Build 0)  -->
<!DOCTYPE svg PUBLIC "-//W3C//DTD SVG 1.1//EN" "http://www.w3.org/Graphics/SVG/1.1/DTD/svg11.dtd">
<svg version="1.1" id="Layer_1" xmlns="http://www.w3.org/2000/svg" xmlns:xlink="http://www.w3.org/1999/xlink" x="0px" y="0px"
	 width="136px" height="30px" viewBox="0 0 136 30" enable-background="new 0 0 136 30" xml:space="preserve">
<g>
	<path fill="#FFFFFF" d="M0.079,6.671C1.622,6.419,3.89,6.229,6.472,6.229c3.149,0,5.354,0.473,6.866,1.669
		c1.291,1.008,1.984,2.52,1.984,4.472c0,2.677-1.921,4.535-3.748,5.196v0.095c1.48,0.599,2.299,1.984,2.834,3.937
		c0.662,2.426,1.292,5.197,1.701,6.016h-4.913c-0.315-0.63-0.851-2.33-1.449-4.944c-0.598-2.677-1.512-3.37-3.496-3.401H4.834v8.346
		H0.079V6.671z M4.834,15.804h1.89c2.394,0,3.811-1.196,3.811-3.055c0-1.921-1.323-2.929-3.527-2.929
		c-1.166,0-1.827,0.063-2.173,0.157V15.804z"/>
	<path fill="#FFFFFF" d="M21.334,21.441c0.126,1.984,2.11,2.929,4.346,2.929c1.638,0,2.96-0.221,4.251-0.661l0.63,3.244
		c-1.574,0.661-3.496,0.976-5.574,0.976c-5.228,0-8.22-3.023-8.22-7.842c0-3.905,2.425-8.22,7.779-8.22
		c4.976,0,6.866,3.874,6.866,7.685c0,0.818-0.095,1.543-0.157,1.89H21.334z M26.972,18.166c0-1.165-0.504-3.118-2.709-3.118
		c-2.016,0-2.834,1.858-2.96,3.118H26.972z"/>
	<path fill="#FFFFFF" d="M33.569,5.253h4.787v22.361h-4.787V5.253z"/>
	<path fill="#FFFFFF" d="M45.314,27.961c-3.118,0-4.977-2.268-4.977-4.725c0-3.999,3.591-5.89,9.039-5.89v-0.188
		c0-0.851-0.441-2.016-2.803-2.016c-1.575,0-3.244,0.535-4.252,1.165l-0.882-3.086c1.071-0.599,3.181-1.386,5.984-1.386
		c5.133,0,6.74,3.023,6.74,6.677v5.385c0,1.449,0.063,2.866,0.252,3.717 M49.534,20.339c-2.52,0-4.472,0.599-4.472,2.426
		c0,1.228,0.818,1.826,1.89,1.826c1.165,0,2.173-0.787,2.488-1.764c0.063-0.252,0.094-0.535,0.094-0.818V20.339z"/>
	<path fill="#FFFFFF" d="M62.252,8.057v4.157h3.433v3.527h-3.433v5.574c0,1.858,0.472,2.709,1.89,2.709
		c0.661,0,0.977-0.032,1.417-0.127l0.031,3.622c-0.599,0.221-1.764,0.409-3.086,0.409c-1.543,0-2.835-0.535-3.622-1.322
		c-0.882-0.913-1.323-2.394-1.323-4.566v-6.299h-2.047v-3.527h2.047V9.348L62.252,8.057z"/>
	<path fill="#FFFFFF" d="M71.705,27.961c-3.118,0-4.977-2.268-4.977-4.725c0-3.999,3.591-5.89,9.039-5.89v-0.188
		c0-0.851-0.44-2.016-2.803-2.016c-1.575,0-3.244,0.535-4.252,1.165l-0.882-3.086c1.07-0.599,3.181-1.386,5.984-1.386
		c5.133,0,6.739,3.023,6.739,6.677v5.385c0,1.449,0.063,2.866,0.252,3.717 M75.925,20.339c-2.52,0-4.472,0.599-4.472,2.426
		c0,1.228,0.818,1.826,1.89,1.826c1.165,0,2.173-0.787,2.488-1.764c0.063-0.252,0.094-0.535,0.094-0.818V20.339z"/>
	<path fill="#FFFFFF" d="M83.297,27.614c0.063-1.008,0.126-2.866,0.126-4.598V5.253h4.787v8.787h0.063
		c0.913-1.322,2.52-2.173,4.661-2.173c3.685,0,6.361,3.055,6.33,7.779c0,5.543-3.496,8.314-7.023,8.314 M88.21,21.063
		c0,0.314,0.031,0.599,0.095,0.851c0.315,1.26,1.417,2.268,2.803,2.268c2.048,0,3.308-1.575,3.308-4.347
		c0-2.394-1.071-4.283-3.308-4.283c-1.291,0-2.487,0.977-2.803,2.362c-0.063,0.283-0.095,0.567-0.095,0.882V21.063z"/>
	<path fill="#FFFFFF" d="M101.425,5.253h4.787v22.361h-4.787V5.253z"/>
	<path fill="#FFFFFF" d="M112.872,21.441c0.125,1.984,2.109,2.929,4.346,2.929c1.638,0,2.961-0.221,4.252-0.661l0.63,3.244
		c-1.575,0.661-3.496,0.976-5.575,0.976c-5.228,0-8.22-3.023-8.22-7.842c0-3.905,2.425-8.22,7.779-8.22
		c4.976,0,6.866,3.874,6.866,7.685c0,0.818-0.095,1.543-0.158,1.89H112.872z M118.509,18.166c0-1.165-0.504-3.118-2.708-3.118
		c-2.016,0-2.835,1.858-2.961,3.118H118.509z"/>
	<path fill="#FFFFFF" d="M124.959,23.457c0.882,0.535,2.708,1.134,4.126,1.134c1.448,0,2.047-0.473,2.047-1.26
		c0-0.818-0.473-1.197-2.236-1.795c-3.212-1.071-4.44-2.803-4.409-4.63c0-2.897,2.457-5.07,6.268-5.07
		c1.795,0,3.37,0.44,4.314,0.913l-0.818,3.307c-0.693-0.378-2.048-0.882-3.339-0.882c-1.165,0-1.826,0.473-1.826,1.229
		s0.598,1.134,2.488,1.795c2.929,1.008,4.125,2.52,4.156,4.756c0,2.897-2.235,5.008-6.645,5.008c-2.016,0-3.811-0.473-4.977-1.103
		L124.959,23.457z"/>
</g>
<g>
	<path fill="#FFFFFF" d="M110.7,8.729V2.287h2.417c0.492,0,0.887,0.065,1.185,0.195c0.297,0.131,0.53,0.332,0.698,0.603
		s0.253,0.554,0.253,0.85c0,0.275-0.075,0.535-0.224,0.778c-0.15,0.243-0.375,0.439-0.678,0.589
		c0.391,0.114,0.689,0.309,0.899,0.584c0.209,0.275,0.313,0.601,0.313,0.976c0,0.302-0.063,0.583-0.19,0.841
		c-0.128,0.26-0.285,0.459-0.473,0.6s-0.423,0.247-0.705,0.319c-0.283,0.072-0.63,0.107-1.04,0.107H110.7z M111.553,4.994h1.393
		c0.379,0,0.649-0.025,0.813-0.075c0.217-0.064,0.38-0.171,0.49-0.321c0.109-0.149,0.165-0.337,0.165-0.563
		c0-0.214-0.052-0.402-0.154-0.564c-0.103-0.163-0.249-0.274-0.439-0.334s-0.518-0.09-0.98-0.09h-1.287V4.994z M111.553,7.969h1.604
		c0.275,0,0.469-0.01,0.58-0.031c0.197-0.035,0.361-0.094,0.492-0.176c0.133-0.082,0.24-0.201,0.326-0.358
		c0.084-0.156,0.127-0.337,0.127-0.542c0-0.24-0.062-0.449-0.185-0.626c-0.123-0.177-0.294-0.301-0.512-0.373
		c-0.219-0.072-0.532-0.108-0.942-0.108h-1.49V7.969z"/>
	<path fill="#FFFFFF" d="M116.687,8.729V2.287h4.658v0.76h-3.806v1.973h3.564v0.756h-3.564v2.193h3.955v0.76H116.687z"/>
	<path fill="#FFFFFF" d="M124.251,8.729V3.047h-2.122v-0.76h5.105v0.76h-2.131v5.682H124.251z"/>
	<path fill="#FFFFFF" d="M126.654,8.729l2.474-6.442h0.919l2.637,6.442h-0.972l-0.751-1.951h-2.694l-0.708,1.951H126.654z
		 M128.513,6.084h2.185L130.024,4.3c-0.205-0.542-0.357-0.987-0.457-1.336c-0.082,0.413-0.198,0.823-0.347,1.23L128.513,6.084z"/>
</g>
</svg>
