<?xml version="1.0" encoding="utf-8"?>
<!-- Generator: Adobe Illustrator 16.0.0, SVG Export Plug-In . SVG Version: 6.00 Build 0)  -->
<!DOCTYPE svg PUBLIC "-//W3C//DTD SVG 1.1//EN" "http://www.w3.org/Graphics/SVG/1.1/DTD/svg11.dtd">
<svg version="1.1" id="Layer_1" xmlns="http://www.w3.org/2000/svg" xmlns:xlink="http://www.w3.org/1999/xlink" x="0px" y="0px"
	 width="50px" height="50px" viewBox="0 0 50 50" enable-background="new 0 0 50 50" xml:space="preserve">
<circle fill="#FFFFFF" cx="25" cy="25" r="24.417"/>
<path fill="#1D2238" d="M38.883,13.499c-1.165,0.69-2.455,1.192-3.829,1.463c-1.1-1.172-2.667-1.904-4.4-1.904
	c-3.331,0-6.03,2.7-6.03,6.03c0,0.473,0.054,0.933,0.156,1.374c-5.011-0.252-9.454-2.652-12.428-6.301
	c-0.52,0.892-0.816,1.927-0.816,3.032c0,2.092,0.821,3.938,2.439,5.019C12.986,22.181,12,21.909,11,21.458c0,0.024,0,0.05,0,0.075
	c0,2.922,2.322,5.358,5.08,5.912c-0.506,0.138-0.917,0.212-1.466,0.212c-0.389,0-0.706-0.038-1.074-0.108
	c0.768,2.396,3.024,4.139,5.663,4.188c-2.063,1.617-4.649,2.581-7.473,2.581c-0.487,0-0.959-0.028-1.431-0.084
	c2.668,1.711,5.842,2.709,9.246,2.709c11.091,0,17.158-9.188,17.158-17.155c0-0.262-0.005-0.521-0.017-0.78
	c1.178-0.851,2.201-1.912,3.009-3.121c-1.081,0.479-2.243,0.804-3.463,0.949C37.477,16.089,38.433,14.907,38.883,13.499z"/>
</svg>
